<?xml version="1.0" encoding="UTF-8" standalone="no"?>
<!-- Created with Inkscape (http://www.inkscape.org/) -->

<svg
   width="500"
   height="500"
   viewBox="0 0 132.29166 132.29167"
   version="1.1"
   id="svg1"
   inkscape:version="1.3.2 (091e20e, 2023-11-25, custom)"
   sodipodi:docname="gforge_fusion_logo_white.svg"
   xmlns:inkscape="http://www.inkscape.org/namespaces/inkscape"
   xmlns:sodipodi="http://sodipodi.sourceforge.net/DTD/sodipodi-0.dtd"
   xmlns="http://www.w3.org/2000/svg"
   xmlns:svg="http://www.w3.org/2000/svg">
  <sodipodi:namedview
     id="namedview1"
     pagecolor="#505050"
     bordercolor="#ffffff"
     borderopacity="1"
     inkscape:showpageshadow="0"
     inkscape:pageopacity="0"
     inkscape:pagecheckerboard="1"
     inkscape:deskcolor="#505050"
     inkscape:document-units="px"
     inkscape:zoom="1.4815911"
     inkscape:cx="111.02928"
     inkscape:cy="416.44419"
     inkscape:window-width="2560"
     inkscape:window-height="1476"
     inkscape:window-x="-12"
     inkscape:window-y="-12"
     inkscape:window-maximized="1"
     inkscape:current-layer="svg1" />
  <defs
     id="defs1" />
  <g
     inkscape:groupmode="layer"
     id="layer2"
     inkscape:label="layer1" />
  <g
     id="g1"
     transform="matrix(1.0784207,0,0,1.0784207,-5.1421092,-5.1872014)"
     style="fill:#ffffff;fill-opacity:1;stroke-width:0.927281">
    <path
       d="m 4.7681836,58.95361 c 1.10137,2.385444 4.8574531,3.619683 8.0117564,3.611524 6.453727,-0.01669 7.33871,5.259575 3.63651,7.830361 -2.234891,1.551895 -5.124188,1.543389 -6.221189,3.368157 l 17.379836,3.7e-5 3.066689,-5.311699 -3.561817,0.109283 c -1.726784,3.56345 -4.071058,2.731305 -4.55031,1.009522 -0.99294,-3.567279 2.052472,-8.195578 8.621538,-8.225411 3.603038,-0.01636 2.465577,-0.01636 3.603038,-0.01636 l 1.617265,-2.80102 -20.853521,-3e-5 0.0052,0.438933 z"
       style="display:inline;opacity:1;fill:#ffffff;fill-opacity:1;stroke:none;stroke-width:0.527278"
       id="path5"
       sodipodi:nodetypes="cssccccssccccc" />
    <text
       xml:space="preserve"
       style="font-style:normal;font-variant:normal;font-weight:normal;font-stretch:normal;font-size:21.1607px;font-family:Orbitron;-inkscape-font-specification:Orbitron;fill:#ffffff;fill-opacity:1;stroke-width:0.490687"
       x="72.590233"
       y="73.76368"
       id="text1"
       transform="skewX(-30.032083)"><tspan
         sodipodi:role="line"
         id="tspan1"
         style="fill:#ffffff;fill-opacity:1;stroke-width:0.490687"
         x="72.590233"
         y="73.76368">FUSION</tspan></text>
  </g>
</svg>
